<svg xmlns="http://www.w3.org/2000/svg" viewBox="0 0 24 24" width="24" height="24" fill="none" stroke="currentColor" stroke-width="1.5" stroke-linecap="round" stroke-linejoin="round">
  <!-- Brain outline -->
  <path d="M12 2C9 2 7 4 7 6.5c0 .5-.5 1-1 1C4 7.5 3 9 3 10.5S4 13.5 5.5 14c.5 0 .5.5.5 1 0 2 1.5 4 4 4.5V22h4v-2.5c2.5-.5 4-2.5 4-4.5 0-.5 0-1 .5-1C20 13.5 21 12 21 10.5S20 7.5 18 7.5c-.5 0-1-.5-1-1C17 4 15 2 12 2z"/>
  <!-- Center fold -->
  <line x1="12" y1="2" x2="12" y2="19.5"/>
  <!-- Neural connections (left) -->
  <path d="M9 7c-1 1-2 2.5-1 4"/>
  <path d="M8 12c-.5 1 0 3 1.5 3.5"/>
  <!-- Neural connections (right) -->
  <path d="M15 7c1 1 2 2.5 1 4"/>
  <path d="M16 12c.5 1 0 3-1.5 3.5"/>
</svg>
